<svg width="96" height="96" viewBox="0 0 96 96" fill="none" xmlns="http://www.w3.org/2000/svg">
<g clip-path="url(#clip0_153_6)">
<path d="M73.1999 22.8399C71.6399 21.2799 69.1199 21.2799 67.5599 22.8399L47.9999 42.3599L28.4399 22.7999C26.8799 21.2399 24.3599 21.2399 22.7999 22.7999C21.2399 24.3599 21.2399 26.8799 22.7999 28.4399L42.3599 47.9999L22.7999 67.5599C21.2399 69.1199 21.2399 71.6399 22.7999 73.1999C24.3599 74.7599 26.8799 74.7599 28.4399 73.1999L47.9999 53.6399L67.5599 73.1999C69.1199 74.7599 71.6399 74.7599 73.1999 73.1999C74.7599 71.6399 74.7599 69.1199 73.1999 67.5599L53.6399 47.9999L73.1999 28.4399C74.7199 26.9199 74.7199 24.3599 73.1999 22.8399Z" fill="#FF6A3D"/>
</g>
<defs>
<clipPath id="clip0_153_6">
<rect width="96" height="96" fill="white"/>
</clipPath>
</defs>
</svg>
