<svg width="113" height="23" viewBox="0 0 113 23" fill="none" xmlns="http://www.w3.org/2000/svg">
<g clip-path="url(#clip0_30_792)">
<path d="M67.9271 11.402L79.3186 22.7935L90.7101 11.402L79.3186 0.0104761L67.9271 11.402Z" fill="#2C3333"/>
<path d="M68.9272 11.37L57.6372 22.67L46.3372 11.37L57.6372 0.0499878L68.9272 11.37ZM57.6372 20.05L66.6371 11.37L57.6372 2.54999L49.1371 11.37L53.1371 15.55L57.6372 20.05Z" fill="#2C3333"/>
<path d="M24.5541 11.3964L35.9456 22.7878L47.337 11.3964L35.9456 0.00486218L24.5541 11.3964Z" fill="#2C3333"/>
<path d="M25.5541 11.32L14.2641 22.62L2.96411 11.32L14.2641 0L25.5541 11.32ZM14.2641 20L23.2641 11.32L14.2641 2.5L5.7641 11.32L9.7641 15.5L14.2641 20Z" fill="#2C3333"/>
<path d="M112.3 11.32L101.01 22.62L89.71 11.32L101.01 0L112.3 11.32ZM101.01 20L110.01 11.32L101.01 2.5L92.5099 11.32L96.5099 15.5L101.01 20Z" fill="#2C3333"/>
</g>
<defs>
<clipPath id="clip0_30_792">
<rect width="112.3" height="22.79" fill="white"/>
</clipPath>
</defs>
</svg>
