<svg width="32" height="32" viewBox="0 0 32 32" fill="none" xmlns="http://www.w3.org/2000/svg">
<path d="M28.4444 0H3.55556C1.59111 0 0 1.59111 0 3.55556V28.4444C0 30.4089 1.59111 32 3.55556 32H28.4444C30.4089 32 32 30.4089 32 28.4444V3.55556C32 1.59111 30.4089 0 28.4444 0ZM8.42311 24.8889C7.184 24.8889 6.17956 23.8844 6.17956 22.6453V14.6862C6.18133 13.4489 7.18578 12.4444 8.42311 12.4444C9.66222 12.4444 10.6667 13.4489 10.6667 14.688V22.6471C10.6667 23.8844 9.66222 24.8889 8.42311 24.8889ZM8.34489 10.1636C6.97422 10.1636 6.05867 9.24978 6.05867 8.03022C6.05867 6.81067 6.97244 5.89689 8.496 5.89689C9.86667 5.89689 10.7822 6.81067 10.7822 8.03022C10.7822 9.24978 9.86844 10.1636 8.34489 10.1636ZM24.496 24.8889C23.2978 24.8889 22.3253 23.9164 22.3253 22.7182V18.0871C22.3253 16.2062 21.168 16 20.7342 16C20.3004 16 18.8533 16.0622 18.8533 18.0871V22.7182C18.8533 23.9164 17.8809 24.8889 16.6827 24.8889H16.5387C15.3404 24.8889 14.368 23.9164 14.368 22.7182V14.688C14.368 13.4489 15.3724 12.4444 16.6116 12.4444C17.8507 12.4444 18.8551 13.4489 18.8551 14.688C18.8551 14.688 19.3564 12.4444 22.7627 12.4444C24.9298 12.4444 26.6667 14.1813 26.6667 18.0871V22.7182C26.6667 23.9164 25.6942 24.8889 24.496 24.8889Z" fill="#FEECDB"/>
</svg>
