<svg width="308" height="375" viewBox="0 0 308 375" fill="none" xmlns="http://www.w3.org/2000/svg">
<g clip-path="url(#clip0_73_140)">
<path d="M308 218.218L172.062 296.625L36.1242 375V218.218L36.1242 61.4681L172.062 139.843L308 218.218Z" fill="#2C3333"/>
<path d="M105.824 61.0282L105.824 235.345L119.512 227.426L119.512 68.916L105.824 61.0282Z" fill="#3D3D3D"/>
<path d="M79.3601 45.7555L79.3601 250.587L93.0483 242.667L93.0483 53.6747L79.3601 45.7555Z" fill="#3D3D3D"/>
<path d="M52.8961 30.5142L52.8961 265.828L66.6157 257.94L66.6157 38.402L52.8961 30.5142Z" fill="#3D3D3D"/>
<path d="M132.288 76.2695L132.288 220.072L145.976 212.185L145.976 84.1573L132.288 76.2695Z" fill="#3D3D3D"/>
<path d="M26.4639 15.2413L26.4639 281.101L40.1521 273.182L40.1521 23.1605L26.4639 15.2413Z" fill="#3D3D3D"/>
<path d="M4.80387e-05 0L4.80387e-05 296.342L13.6882 288.454L13.6882 7.88779L4.80387e-05 0Z" fill="#3D3D3D"/>
<path d="M158.72 91.511L158.72 204.831L172.44 196.912L172.44 99.4302L158.72 91.511Z" fill="#3D3D3D"/>
<path d="M256.992 148.171L238.112 137.298V159.076L256.992 148.171Z" fill="#3D3D3D"/>
<path d="M185.184 106.784L185.184 189.558L198.872 181.671V114.671L185.184 106.784Z" fill="#3D3D3D"/>
<path d="M225.336 129.913L211.648 122.025V174.317L225.336 166.398V129.913Z" fill="#3D3D3D"/>
</g>
<defs>
<clipPath id="clip0_73_140">
<rect width="375" height="308" fill="white" transform="matrix(0 1 -1 0 308 0)"/>
</clipPath>
</defs>
</svg>
