<svg width="32" height="32" viewBox="0 0 32 32" fill="none" xmlns="http://www.w3.org/2000/svg">
<path d="M14.2039 0.110969C6.82901 0.912593 0.896988 6.84461 0.0953639 14.0592C-0.70626 21.5945 3.62251 28.3281 10.1958 30.8933C10.6768 31.0537 11.1578 30.733 11.1578 30.0917V27.5265C11.1578 27.5265 10.5165 27.6868 9.71485 27.6868C7.47031 27.6868 6.50836 25.7629 6.34803 24.6407C6.18771 23.9994 5.86706 23.5184 5.38608 23.0374C4.90511 22.8771 4.74478 22.8771 4.74478 22.7168C4.74478 22.3961 5.22576 22.3961 5.38608 22.3961C6.34803 22.3961 7.14965 23.5184 7.4703 23.9994C8.27193 25.282 9.23388 25.6026 9.71485 25.6026C10.3562 25.6026 10.8371 25.4423 11.1578 25.282C11.3181 24.1597 11.7991 23.0374 12.761 22.3961C9.07355 21.5945 6.34803 19.5103 6.34803 15.9831C6.34803 14.2196 7.14965 12.456 8.27193 11.1734C8.1116 10.8527 7.95128 10.0511 7.95128 8.92883C7.95128 8.28753 7.95128 7.48591 8.27193 6.84461C8.27193 6.52396 8.59258 6.36364 8.7529 6.36364H8.91323C9.71485 6.52396 11.3181 7.00494 12.761 8.44786C13.723 8.12721 14.8452 7.96688 15.9675 7.96688C17.0898 7.96688 18.2121 8.12721 19.174 8.44786C20.6169 7.00494 22.3805 6.52396 23.1821 6.36364H23.3425C23.6631 6.36364 23.8234 6.52396 23.9838 6.84461C23.9838 7.48591 23.9838 8.28753 23.9838 8.92883C23.9838 10.2114 23.8234 10.8527 23.6631 11.1734C24.7854 12.456 25.587 14.0592 25.587 15.9831C25.587 19.5103 22.8615 21.5945 19.174 22.3961C20.136 23.1977 20.7773 24.6407 20.7773 26.0836V30.252C20.7773 30.733 21.2582 31.214 21.8995 31.0537C27.8316 28.6488 32 22.8771 32 16.1434C32 6.52396 23.8234 -1.0113 14.2039 0.110969Z" fill="#FEECDB"/>
</svg>
