<svg width="96" height="96" viewBox="0 0 96 96" fill="none" xmlns="http://www.w3.org/2000/svg">
<path d="M11.9998 19.9999C11.4698 19.9924 10.9435 20.0903 10.4517 20.288C9.9598 20.4857 9.51211 20.7791 9.13463 21.1513C8.75715 21.5234 8.45741 21.9669 8.25282 22.456C8.04823 22.945 7.94287 23.4698 7.94287 23.9999C7.94287 24.53 8.04823 25.0548 8.25282 25.5439C8.45741 26.0329 8.75715 26.4764 9.13463 26.8486C9.51211 27.2207 9.9598 27.5142 10.4517 27.7118C10.9435 27.9095 11.4698 28.0074 11.9998 27.9999H83.9998C84.5299 28.0074 85.0561 27.9095 85.548 27.7118C86.0399 27.5142 86.4876 27.2207 86.8651 26.8486C87.2425 26.4764 87.5423 26.0329 87.7469 25.5439C87.9515 25.0548 88.0568 24.53 88.0568 23.9999C88.0568 23.4698 87.9515 22.945 87.7469 22.456C87.5423 21.9669 87.2425 21.5234 86.8651 21.1513C86.4876 20.7791 86.0399 20.4857 85.548 20.288C85.0561 20.0903 84.5299 19.9924 83.9998 19.9999H11.9998ZM11.9998 43.9999C11.4698 43.9924 10.9435 44.0903 10.4517 44.288C9.9598 44.4856 9.51211 44.7791 9.13463 45.1513C8.75715 45.5234 8.45741 45.9669 8.25282 46.456C8.04823 46.945 7.94287 47.4698 7.94287 47.9999C7.94287 48.53 8.04823 49.0548 8.25282 49.5439C8.45741 50.0329 8.75715 50.4764 9.13463 50.8486C9.51211 51.2207 9.9598 51.5142 10.4517 51.7118C10.9435 51.9095 11.4698 52.0074 11.9998 51.9999H83.9998C84.5299 52.0074 85.0561 51.9095 85.548 51.7118C86.0399 51.5142 86.4876 51.2207 86.8651 50.8486C87.2425 50.4764 87.5423 50.0329 87.7469 49.5439C87.9515 49.0548 88.0568 48.53 88.0568 47.9999C88.0568 47.4698 87.9515 46.945 87.7469 46.456C87.5423 45.9669 87.2425 45.5234 86.8651 45.1513C86.4876 44.7791 86.0399 44.4856 85.548 44.288C85.0561 44.0903 84.5299 43.9924 83.9998 43.9999H11.9998ZM11.9998 67.9999C11.4698 67.9924 10.9435 68.0903 10.4517 68.288C9.9598 68.4857 9.51211 68.7791 9.13463 69.1513C8.75715 69.5234 8.45741 69.9669 8.25282 70.456C8.04823 70.945 7.94287 71.4698 7.94287 71.9999C7.94287 72.53 8.04823 73.0548 8.25282 73.5439C8.45741 74.0329 8.75715 74.4764 9.13463 74.8486C9.51211 75.2207 9.9598 75.5142 10.4517 75.7118C10.9435 75.9095 11.4698 76.0074 11.9998 75.9999H83.9998C84.5299 76.0074 85.0561 75.9095 85.548 75.7118C86.0399 75.5142 86.4876 75.2207 86.8651 74.8486C87.2425 74.4764 87.5423 74.0329 87.7469 73.5439C87.9515 73.0548 88.0568 72.53 88.0568 71.9999C88.0568 71.4698 87.9515 70.945 87.7469 70.456C87.5423 69.9669 87.2425 69.5234 86.8651 69.1513C86.4876 68.7791 86.0399 68.4857 85.548 68.288C85.0561 68.0903 84.5299 67.9924 83.9998 67.9999H11.9998Z" fill="#FF6A3D"/>
</svg>
